<?xml version="1.0" encoding="utf-8"?>
<!-- Generator: Adobe Illustrator 22.0.1, SVG Export Plug-In . SVG Version: 6.00 Build 0)  -->
<svg version="1.1" id="Layer_1" xmlns="http://www.w3.org/2000/svg" xmlns:xlink="http://www.w3.org/1999/xlink" x="0px" y="0px"
	 viewBox="0 0 256 256" style="enable-background:new 0 0 256 256;" xml:space="preserve">
<style type="text/css">
	.st0{fill:#5BBCBF;}
</style>
<path class="st0" d="M208.7,0H47.3C21.3,0,0,21.3,0,47.3v161.5c0,26,21.3,47.3,47.3,47.3h161.5c26,0,47.3-21.3,47.3-47.3V47.3
	C256,21.3,234.7,0,208.7,0z M113.8,64.3l57,0l-11.7-11.7c-2.3-2.3-2.3-6,0-8.2c2.3-2.3,6-2.3,8.2,0L188.9,66
	c1.1,1.1,1.7,2.6,1.7,4.1c0,1.5-0.6,3-1.7,4.1l-21.6,21.6c-2.3,2.3-6,2.3-8.2,0c-2.3-2.3-2.3-6,0-8.2l11.7-11.7h-57
	c-3.2,0-5.8-2.6-5.8-5.8C108,66.9,110.6,64.3,113.8,64.3z M51.1,108.7c0-1.5,0.6-3,1.7-4.1L74.4,83c2.3-2.3,6-2.3,8.2,0
	c2.3,2.3,2.3,6,0,8.2l-11.7,11.7h57c3.2,0,5.8,2.6,5.8,5.8c0,3.2-2.6,5.8-5.8,5.8l-57,0l11.7,11.7c2.3,2.3,2.3,6,0,8.2
	c-2.3,2.3-6,2.3-8.2,0l-21.6-21.6C51.7,111.7,51.1,110.2,51.1,108.7z M142.1,191.7l-57,0l11.7,11.7c2.3,2.3,2.3,6,0,8.2
	c-2.3,2.3-6,2.3-8.2,0L67,190c-1.1-1.1-1.7-2.6-1.7-4.1c0-1.5,0.6-3,1.7-4.1l21.6-21.6c2.3-2.3,6-2.3,8.2,0c2.3,2.3,2.3,6,0,8.2
	l-11.7,11.7h57c3.2,0,5.8,2.6,5.8,5.8C147.9,189.1,145.3,191.7,142.1,191.7z M203.2,151.4L181.6,173c-2.3,2.3-6,2.3-8.2,0
	c-2.3-2.3-2.3-6,0-8.2l11.7-11.7h-57c-3.2,0-5.8-2.6-5.8-5.8c0-3.2,2.6-5.8,5.8-5.8l57,0l-11.7-11.7c-2.3-2.3-2.3-6,0-8.2
	c2.3-2.3,6-2.3,8.2,0l21.6,21.6c1.1,1.1,1.7,2.6,1.7,4.1C204.9,148.8,204.3,150.3,203.2,151.4z"/>
</svg>
