<?xml version="1.0" encoding="utf-8"?>
<!-- Generator: Adobe Illustrator 22.0.1, SVG Export Plug-In . SVG Version: 6.00 Build 0)  -->
<svg version="1.1" id="Layer_1" xmlns="http://www.w3.org/2000/svg" xmlns:xlink="http://www.w3.org/1999/xlink" x="0px" y="0px"
	 viewBox="0 0 256 256" style="enable-background:new 0 0 256 256;" xml:space="preserve">
<style type="text/css">
	.st0{fill:#CC0000;}
</style>
<g>
	<rect x="88.8" y="162.7" class="st0" width="48.7" height="18"/>
	<rect x="148.4" y="162.7" class="st0" width="48.7" height="18"/>
	<rect x="148.4" y="104.5" class="st0" width="48.7" height="18"/>
	<rect x="58.9" y="133.5" class="st0" width="48.7" height="18"/>
	<rect x="118.6" y="133.5" class="st0" width="48.7" height="18"/>
	<path class="st0" d="M128,0C57.3,0,0,57.3,0,128c0,70.7,57.3,128,128,128s128-57.3,128-128C256,57.3,198.7,0,128,0z M208,128
		c0,3-2.5,5.5-5.5,5.5h-24.3v18.2h24.3c3,0,5.5,2.5,5.5,5.5v28.9c0,3-2.5,5.5-5.5,5.5H83.3c-3,0-5.5-2.5-5.5-5.5v-23.7l-24.3,0
		c-3,0-5.5-2.5-5.5-5.5V128c0-3,2.5-5.5,5.5-5.5l24.3,0v-18.2H53.5c-3,0-5.5-2.5-5.5-5.5V69.9c0-3,2.5-5.5,5.5-5.5h119.2
		c3,0,5.5,2.5,5.5,5.5v23.7h24.3c3,0,5.5,2.5,5.5,5.5V128z"/>
	<rect x="88.8" y="104.5" class="st0" width="48.7" height="18"/>
	<rect x="118.6" y="75.3" class="st0" width="48.7" height="18"/>
	<rect x="58.9" y="75.3" class="st0" width="48.7" height="18"/>
</g>
</svg>
