<?xml version="1.0" encoding="utf-8"?>
<!-- Generator: Adobe Illustrator 22.0.1, SVG Export Plug-In . SVG Version: 6.00 Build 0)  -->
<svg version="1.1" id="Layer_1" xmlns="http://www.w3.org/2000/svg" xmlns:xlink="http://www.w3.org/1999/xlink" x="0px" y="0px"
	 viewBox="0 0 236.1 78.9" style="enable-background:new 0 0 236.1 78.9;" xml:space="preserve">
<style type="text/css">
	.st0{fill:#CC0000;}
</style>
<g>
	<g>
		<path class="st0" d="M219.3,12.6c2.5,0,4.1,1.6,4.1,4.1v45.3c0,2.5-1.6,4.1-4.1,4.1H16.8c-2.5,0-4.1-1.6-4.1-4.1V16.8
			c0-2.5,1.6-4.1,4.1-4.1H219.3 M219.3,0H16.8C7.3,0,0,7.3,0,16.8v45.3c0,9.5,7.3,16.8,16.8,16.8h202.5c9.5,0,16.8-7.3,16.8-16.8
			V16.8C236.1,7.3,228.8,0,219.3,0L219.3,0z"/>
		<path class="st0" d="M51.5,33.4c3.1,0,5.3,2.2,5.3,5.3c0,3.1-2.2,5.3-5.3,5.3c-3.1,0-5.3-2.8-5.3-5.3
			C46.2,35.5,48.4,33.4,51.5,33.4 M51.5,20.7c-10.1,0-17.9,7.8-17.9,17.9c0,9.5,7.8,17.9,17.9,17.9c10.1,0,17.9-7.8,17.9-17.9
			C69.4,28.5,61.6,20.7,51.5,20.7L51.5,20.7z"/>
		<path class="st0" d="M147.7,24.1h-7.8c-3.4,0-5.6,2.2-5.6,5.6c0,3.4,2.8,5.6,5.6,5.6h7.8c3.4,0,5.6-2.2,5.6-5.6
			C153.3,26.3,151,24.1,147.7,24.1L147.7,24.1z"/>
		<path class="st0" d="M172.3,24.1h-7.8c-3.4,0-5.6,2.2-5.6,5.6c0,3.4,2.8,5.6,5.6,5.6h7.8c3.4,0,5.6-2.2,5.6-5.6
			C177.9,26.3,175.7,24.1,172.3,24.1L172.3,24.1z"/>
		<path class="st0" d="M196.9,24.1h-7.8c-3.4,0-5.6,2.2-5.6,5.6c0,3.4,2.2,5.6,5.6,5.6h7.8c3.4,0,5.6-2.2,5.6-5.6
			C202.5,26.3,200.3,24.1,196.9,24.1L196.9,24.1z"/>
		<path class="st0" d="M147.7,43.7h-7.8c-3.4,0-5.6,2.2-5.6,5.6c0,3.4,2.8,5.6,5.6,5.6h7.8c3.4,0,5.6-2.2,5.6-5.6
			C153.3,45.9,151,43.7,147.7,43.7L147.7,43.7z"/>
		<path class="st0" d="M172.3,43.7h-7.8c-3.4,0-5.6,2.2-5.6,5.6c0,3.4,2.8,5.6,5.6,5.6h7.8c3.4,0,5.6-2.2,5.6-5.6
			C177.9,45.9,175.7,43.7,172.3,43.7L172.3,43.7z"/>
		<path class="st0" d="M196.9,43.7h-7.8c-3.4,0-5.6,2.2-5.6,5.6c0,3.4,2.2,5.6,5.6,5.6h7.8c3.4,0,5.6-2.2,5.6-5.6
			C202.5,45.9,200.3,43.7,196.9,43.7L196.9,43.7z"/>
	</g>
</g>
</svg>
