<?xml version="1.0" encoding="utf-8"?>
<!-- Generator: Adobe Illustrator 22.0.1, SVG Export Plug-In . SVG Version: 6.00 Build 0)  -->
<svg version="1.1" id="Layer_1" xmlns="http://www.w3.org/2000/svg" xmlns:xlink="http://www.w3.org/1999/xlink" x="0px" y="0px"
	 viewBox="0 0 236.1 256" style="enable-background:new 0 0 236.1 256;" xml:space="preserve">
<style type="text/css">
	.st0{fill:#5BBDBF;}
</style>
<g>
	<g>
		<path class="st0" d="M219.3,12.6c2.5,0,4.1,1.6,4.1,4.1v45.3c0,2.5-1.6,4.1-4.1,4.1H16.8c-2.5,0-4.1-1.6-4.1-4.1V16.8
			c0-2.5,1.6-4.1,4.1-4.1H219.3 M219.3,0H16.8C7.3,0,0,7.3,0,16.8v45.3c0,9.5,7.3,16.8,16.8,16.8h202.5c9.5,0,16.8-7.3,16.8-16.8
			V16.8C236.1,7.3,228.8,0,219.3,0L219.3,0z"/>
		<path class="st0" d="M51.5,33.4c3.1,0,5.3,2.2,5.3,5.3c0,3.1-2.2,5.3-5.3,5.3c-3.1,0-5.3-2.8-5.3-5.3
			C46.2,35.5,48.4,33.4,51.5,33.4 M51.5,20.7c-10.1,0-17.9,7.8-17.9,17.9c0,9.5,7.8,17.9,17.9,17.9c10.1,0,17.9-7.8,17.9-17.9
			C69.4,28.5,61.6,20.7,51.5,20.7L51.5,20.7z"/>
		<path class="st0" d="M147.7,24.1h-7.8c-3.4,0-5.6,2.2-5.6,5.6c0,3.4,2.8,5.6,5.6,5.6h7.8c3.4,0,5.6-2.2,5.6-5.6
			C153.3,26.3,151,24.1,147.7,24.1L147.7,24.1z"/>
		<path class="st0" d="M172.3,24.1h-7.8c-3.4,0-5.6,2.2-5.6,5.6c0,3.4,2.8,5.6,5.6,5.6h7.8c3.4,0,5.6-2.2,5.6-5.6
			C177.9,26.3,175.7,24.1,172.3,24.1L172.3,24.1z"/>
		<path class="st0" d="M196.9,24.1h-7.8c-3.4,0-5.6,2.2-5.6,5.6c0,3.4,2.2,5.6,5.6,5.6h7.8c3.4,0,5.6-2.2,5.6-5.6
			C202.5,26.3,200.3,24.1,196.9,24.1L196.9,24.1z"/>
		<path class="st0" d="M147.7,43.7h-7.8c-3.4,0-5.6,2.2-5.6,5.6c0,3.4,2.8,5.6,5.6,5.6h7.8c3.4,0,5.6-2.2,5.6-5.6
			C153.3,45.9,151,43.7,147.7,43.7L147.7,43.7z"/>
		<path class="st0" d="M172.3,43.7h-7.8c-3.4,0-5.6,2.2-5.6,5.6c0,3.4,2.8,5.6,5.6,5.6h7.8c3.4,0,5.6-2.2,5.6-5.6
			C177.9,45.9,175.7,43.7,172.3,43.7L172.3,43.7z"/>
		<path class="st0" d="M196.9,43.7h-7.8c-3.4,0-5.6,2.2-5.6,5.6c0,3.4,2.2,5.6,5.6,5.6h7.8c3.4,0,5.6-2.2,5.6-5.6
			C202.5,45.9,200.3,43.7,196.9,43.7L196.9,43.7z"/>
	</g>
	<g>
		<path class="st0" d="M219.3,101.2c2.5,0,4.1,1.6,4.1,4.1v45.3c0,2.5-1.6,4.1-4.1,4.1H16.8c-2.5,0-4.1-1.6-4.1-4.1v-45.3
			c0-2.5,1.6-4.1,4.1-4.1H219.3 M219.3,88.5H16.8C7.3,88.5,0,95.8,0,105.3v45.3c0,9.5,7.3,16.8,16.8,16.8h202.5
			c9.5,0,16.8-7.3,16.8-16.8v-45.3C236.1,95.8,228.8,88.5,219.3,88.5L219.3,88.5z"/>
		<path class="st0" d="M51.5,121.9c3.1,0,5.3,2.2,5.3,5.3s-2.2,5.3-5.3,5.3c-3.1,0-5.3-2.8-5.3-5.3
			C46.2,124.1,48.4,121.9,51.5,121.9 M51.5,109.2c-10.1,0-17.9,7.8-17.9,17.9c0,9.5,7.8,17.9,17.9,17.9c10.1,0,17.9-7.8,17.9-17.9
			C69.4,117.1,61.6,109.2,51.5,109.2L51.5,109.2z"/>
		<path class="st0" d="M147.7,112.6h-7.8c-3.4,0-5.6,2.2-5.6,5.6c0,3.4,2.8,5.6,5.6,5.6h7.8c3.4,0,5.6-2.2,5.6-5.6
			C153.3,114.8,151,112.6,147.7,112.6L147.7,112.6z"/>
		<path class="st0" d="M172.3,112.6h-7.8c-3.4,0-5.6,2.2-5.6,5.6c0,3.4,2.8,5.6,5.6,5.6h7.8c3.4,0,5.6-2.2,5.6-5.6
			C177.9,114.8,175.7,112.6,172.3,112.6L172.3,112.6z"/>
		<path class="st0" d="M196.9,112.6h-7.8c-3.4,0-5.6,2.2-5.6,5.6c0,3.4,2.2,5.6,5.6,5.6h7.8c3.4,0,5.6-2.2,5.6-5.6
			C202.5,114.8,200.3,112.6,196.9,112.6L196.9,112.6z"/>
		<path class="st0" d="M147.7,132.2h-7.8c-3.4,0-5.6,2.2-5.6,5.6c0,3.4,2.8,5.6,5.6,5.6h7.8c3.4,0,5.6-2.2,5.6-5.6
			C153.3,134.4,151,132.2,147.7,132.2L147.7,132.2z"/>
		<path class="st0" d="M172.3,132.2h-7.8c-3.4,0-5.6,2.2-5.6,5.6c0,3.4,2.8,5.6,5.6,5.6h7.8c3.4,0,5.6-2.2,5.6-5.6
			C177.9,134.4,175.7,132.2,172.3,132.2L172.3,132.2z"/>
		<path class="st0" d="M196.9,132.2h-7.8c-3.4,0-5.6,2.2-5.6,5.6c0,3.4,2.2,5.6,5.6,5.6h7.8c3.4,0,5.6-2.2,5.6-5.6
			C202.5,134.4,200.3,132.2,196.9,132.2L196.9,132.2z"/>
	</g>
	<g>
		<path class="st0" d="M219.3,189.7c2.5,0,4.1,1.6,4.1,4.1v45.3c0,2.5-1.6,4.1-4.1,4.1H16.8c-2.5,0-4.1-1.6-4.1-4.1v-45.3
			c0-2.5,1.6-4.1,4.1-4.1H219.3 M219.3,177.1H16.8c-9.5,0-16.8,7.3-16.8,16.8v45.3c0,9.5,7.3,16.8,16.8,16.8h202.5
			c9.5,0,16.8-7.3,16.8-16.8v-45.3C236.1,184.4,228.8,177.1,219.3,177.1L219.3,177.1z"/>
		<path class="st0" d="M51.5,210.4c3.1,0,5.3,2.2,5.3,5.3c0,3.1-2.2,5.3-5.3,5.3c-3.1,0-5.3-2.8-5.3-5.3
			C46.2,212.6,48.4,210.4,51.5,210.4 M51.5,197.8c-10.1,0-17.9,7.8-17.9,17.9c0,9.5,7.8,17.9,17.9,17.9c10.1,0,17.9-7.8,17.9-17.9
			C69.4,205.6,61.6,197.8,51.5,197.8L51.5,197.8z"/>
		<path class="st0" d="M147.7,201.1h-7.8c-3.4,0-5.6,2.2-5.6,5.6c0,3.4,2.8,5.6,5.6,5.6h7.8c3.4,0,5.6-2.2,5.6-5.6
			C153.3,203.4,151,201.1,147.7,201.1L147.7,201.1z"/>
		<path class="st0" d="M172.3,201.1h-7.8c-3.4,0-5.6,2.2-5.6,5.6c0,3.4,2.8,5.6,5.6,5.6h7.8c3.4,0,5.6-2.2,5.6-5.6
			C177.9,203.4,175.7,201.1,172.3,201.1L172.3,201.1z"/>
		<path class="st0" d="M196.9,201.1h-7.8c-3.4,0-5.6,2.2-5.6,5.6c0,3.4,2.2,5.6,5.6,5.6h7.8c3.4,0,5.6-2.2,5.6-5.6
			C202.5,203.4,200.3,201.1,196.9,201.1L196.9,201.1z"/>
		<path class="st0" d="M147.7,220.7h-7.8c-3.4,0-5.6,2.2-5.6,5.6c0,3.4,2.8,5.6,5.6,5.6h7.8c3.4,0,5.6-2.2,5.6-5.6
			C153.3,223,151,220.7,147.7,220.7L147.7,220.7z"/>
		<path class="st0" d="M172.3,220.7h-7.8c-3.4,0-5.6,2.2-5.6,5.6c0,3.4,2.8,5.6,5.6,5.6h7.8c3.4,0,5.6-2.2,5.6-5.6
			C177.9,223,175.7,220.7,172.3,220.7L172.3,220.7z"/>
		<path class="st0" d="M196.9,220.7h-7.8c-3.4,0-5.6,2.2-5.6,5.6c0,3.4,2.2,5.6,5.6,5.6h7.8c3.4,0,5.6-2.2,5.6-5.6
			C202.5,223,200.3,220.7,196.9,220.7L196.9,220.7z"/>
	</g>
</g>
</svg>
