<?xml version="1.0" encoding="utf-8"?>
<!-- Generator: Adobe Illustrator 22.0.1, SVG Export Plug-In . SVG Version: 6.00 Build 0)  -->
<svg version="1.1" id="Layer_1" xmlns="http://www.w3.org/2000/svg" xmlns:xlink="http://www.w3.org/1999/xlink" x="0px" y="0px"
	 viewBox="0 0 256 256" style="enable-background:new 0 0 256 256;" xml:space="preserve">
<style type="text/css">
	.st0{fill:#FF5850;}
</style>
<g>
	<path class="st0" d="M128.1,175.1c-4,0-7.3,3.3-7.3,7.3s3.3,7.3,7.3,7.3c4,0,7.3-3.3,7.3-7.3S132.1,175.1,128.1,175.1z"/>
	<path class="st0" d="M74.9,175.1c-4,0-7.3,3.3-7.3,7.3s3.3,7.3,7.3,7.3c4,0,7.3-3.3,7.3-7.3S79,175.1,74.9,175.1z"/>
	<path class="st0" d="M128.1,80.9c4,0,7.3-3.3,7.3-7.3c0-4-3.3-7.3-7.3-7.3c-4,0-7.3,3.3-7.3,7.3C120.8,77.6,124,80.9,128.1,80.9z"
		/>
	<path class="st0" d="M181.2,175.1c-4,0-7.3,3.3-7.3,7.3s3.3,7.3,7.3,7.3c4,0,7.3-3.3,7.3-7.3S185.2,175.1,181.2,175.1z"/>
	<path class="st0" d="M218.5,37.5c-50-50-131-50-181,0c-50,50-50,131,0,181c50,50,131,50,181,0C268.5,168.5,268.5,87.5,218.5,37.5z
		 M180.9,199.1c-9.3,0-17-7.5-17-16.7c0-7,5.2-13,10-15.5v-34.1c0-2.6-1.2-4.8-3.9-4.8h-35.6v38.9c6.3,2.5,10.5,8.5,10.5,15.5
		c0,9.2-7.5,16.7-16.8,16.7c-9.3,0-16.8-7.5-16.8-16.7c0-7,4.1-13,10.5-15.5V128H86.1c-2.6,0-3.9,2.2-3.9,4.8v34.1
		c4.7,2.5,10.1,8.5,10.1,15.5c0,9.2-7.9,16.7-17.1,16.7c-9.3,0-16.6-7.5-16.6-16.7c0-7,4.6-13,10.9-15.5v-34.1
		c0-9.6,6.9-17.4,16.5-17.4h35.6v-26c0-0.1,0-0.1,0-0.2c-6.1-2.5-10.5-8.5-10.5-15.5c0-9.2,7.5-16.7,16.8-16.7
		c9.3,0,16.8,7.5,16.8,16.7c0,7-4.3,13-10.5,15.5c0,0.1,0,0.1,0,0.2v26H170c9.7,0,16.5,7.8,16.5,17.4v34.1
		c6.3,2.5,10.8,8.5,10.8,15.5C197.4,191.6,190.2,199.1,180.9,199.1z"/>
</g>
</svg>
