<?xml version="1.0" encoding="utf-8"?>
<!-- Generator: Adobe Illustrator 22.0.1, SVG Export Plug-In . SVG Version: 6.00 Build 0)  -->
<svg version="1.1" id="Layer_1" xmlns="http://www.w3.org/2000/svg" xmlns:xlink="http://www.w3.org/1999/xlink" x="0px" y="0px"
	 viewBox="0 0 256 256" style="enable-background:new 0 0 256 256;" xml:space="preserve">
<style type="text/css">
	.st0{fill:#FF5850;}
</style>
<path class="st0" d="M208.7,0H47.3C21.3,0,0,21.3,0,47.3v161.5c0,26,21.3,47.3,47.3,47.3h161.5c26,0,47.3-21.3,47.3-47.3V47.3
	C256,21.3,234.7,0,208.7,0z M76.8,174.2H64v-49.3c3.7,5.2,8,9.9,12.8,14.1V174.2z M192,174.2h-12.8V139c4.8-4.2,9.1-8.9,12.8-14.1
	V174.2z M128,144.3c-34.8,0-63.1-27.9-64-62.5h12.8c0.9,27.5,23.5,49.7,51.2,49.7s50.3-22.1,51.2-49.7H192
	C191.1,116.4,162.8,144.3,128,144.3z"/>
</svg>
