<?xml version="1.0" encoding="utf-8"?>
<!-- Generator: Adobe Illustrator 22.0.1, SVG Export Plug-In . SVG Version: 6.00 Build 0)  -->
<svg version="1.1" id="Layer_1" xmlns="http://www.w3.org/2000/svg" xmlns:xlink="http://www.w3.org/1999/xlink" x="0px" y="0px"
	 viewBox="0 0 256 256" style="enable-background:new 0 0 256 256;" xml:space="preserve">
<style type="text/css">
	.st0{fill:#5BBDBF;}
</style>
<path class="st0" d="M128,0C57.3,0,0,57.3,0,128c0,70.7,57.3,128,128,128s128-57.3,128-128C256,57.3,198.7,0,128,0z M117.3,144.5
	l0,29.1c0,3.2-2.6,5.8-5.8,5.8c-3.2,0-5.8-2.6-5.8-5.8v0l0-15L74.2,190c-2.3,2.3-6,2.3-8.2,0c-1.1-1.1-1.7-2.6-1.7-4.1
	c0-1.5,0.6-3,1.7-4.2l31.5-31.5h-15c-3.2,0-5.8-2.6-5.8-5.8c0-3.2,2.6-5.8,5.8-5.8h29.1c1.5,0,3,0.7,4.1,1.8
	C116.7,141.4,117.3,142.9,117.3,144.5L117.3,144.5z M120,120c-2.3,2.3-6,2.3-8.2,0L75.6,83.9v16.5c0,3.2-2.6,5.8-5.8,5.8
	c-3.2,0-5.8-2.6-5.8-5.8l0-30.6c0-1.5,0.6-3,1.7-4.1c1.1-1.1,2.6-1.7,4.1-1.7l30.6,0c3.2,0,5.8,2.6,5.8,5.8s-2.6,5.8-5.8,5.8H83.9
	l36.2,36.2C122.3,114.1,122.3,117.8,120,120z M138.1,112.3l0-29.1c0-3.2,2.7-5.9,5.9-5.9c3.2,0,5.9,3,5.9,5.9h0.2v14.9L182,66
	c2.3-2.3,5.8-2.2,8,0c2.3,2.3,2.3,6,0,8.3l-32.1,32.2h15c3.2,0,5.8,2.5,5.8,5.7c0,3.2-2.6,5.8-5.8,5.8l-29.1,0c-1.5,0-3-0.6-4.1-1.7
	C138.7,115.2,138.1,113.8,138.1,112.3L138.1,112.3z M192,186.2c0,1.5-0.6,3-1.7,4.1c-1.1,1.1-2.6,1.7-4.1,1.7l-30.6,0
	c-3.2,0-5.8-2.6-5.8-5.8c0-3.2,2.6-5.8,5.8-5.8h16.5l-36.8-36.8c-1.1-1.1-1.7-2.6-1.7-4.1s0.6-3,1.7-4.1c2.3-2.3,6-2.3,8.2,0
	l36.8,36.8v-16.5c0-3.2,2.6-5.8,5.8-5.8c3.2,0,5.8,2.6,5.8,5.8V186.2z"/>
</svg>
